<svg width="1163" height="660" viewBox="0 0 1163 660" fill="none" xmlns="http://www.w3.org/2000/svg">
<path opacity="0.5" d="M349.061 49.2768C217.906 106.414 197.581 214.455 108.755 294.161C77.8341 321.896 37.8797 346.718 17.0339 377.486C-30.8245 447.912 35.0424 527.798 123.203 583.734C165.242 610.418 214.345 634.864 273.755 646.111C319.442 654.761 368.43 655.121 416.52 655.346L1259.04 659.851C1353.1 660.347 1457.62 658.56 1525.25 620.809C1571.87 594.816 1590.8 556.855 1606.87 520.621C1626.62 476.098 1644.51 427.745 1613.79 385.34C1578.7 336.822 1489.96 309.328 1434.84 267.462C1345.37 199.634 1347.43 97.0434 1233.5 42.8949C1180.31 17.6227 1110.13 7.71195 1041.75 2.7566C912.823 -6.5985 790.701 11.0606 664.092 8.59791C555.868 6.49564 438.842 10.1596 349.061 49.2768Z" fill="#FFF0DF"/>
</svg>
